<svg width="25" height="25" viewBox="0 0 25 25" fill="none" xmlns="http://www.w3.org/2000/svg">
<path d="M12.746 25.0004C12.6633 25.0004 12.5805 25.0004 12.4971 25.0001C10.5375 25.0048 8.72688 24.955 6.96602 24.8479C5.35164 24.7496 3.87802 24.1917 2.70424 23.2346C1.57166 22.3111 0.798225 21.0623 0.405502 19.5235C0.0637055 18.1838 0.0455856 16.8686 0.0282288 15.5966C0.0156402 14.684 0.00267029 13.6025 0 12.5027C0.00267029 11.3984 0.0156402 10.3169 0.0282288 9.40423C0.0455856 8.13241 0.0637055 6.81729 0.405502 5.47738C0.798225 3.93852 1.57166 2.68978 2.70424 1.76624C3.87802 0.809135 5.35164 0.251235 6.96621 0.153006C8.72707 0.0460038 10.5381 -0.00396876 12.5019 0.000799615C14.4621 -0.00339656 16.2722 0.0460038 18.033 0.153006C19.6474 0.251235 21.121 0.809135 22.2948 1.76624C23.4276 2.68978 24.2008 3.93852 24.5935 5.47738C24.9353 6.8171 24.9535 8.13241 24.9708 9.40423C24.9834 10.3169 24.9966 11.3984 24.999 12.4981V12.5027C24.9966 13.6025 24.9834 14.684 24.9708 15.5966C24.9535 16.8685 24.9355 18.1836 24.5935 19.5235C24.2008 21.0623 23.4276 22.3111 22.2948 23.2346C21.121 24.1917 19.6474 24.7496 18.033 24.8479C16.3467 24.9505 14.6145 25.0004 12.746 25.0004ZM12.4971 23.0469C14.4249 23.0515 16.1949 23.0029 17.9144 22.8983C19.1351 22.8242 20.1935 22.428 21.0606 21.7209C21.862 21.0673 22.414 20.1655 22.7011 19.0405C22.9856 17.9253 23.0021 16.7279 23.0179 15.5699C23.0303 14.6634 23.0433 13.5895 23.0459 12.5004C23.0433 11.4111 23.0303 10.3375 23.0179 9.43093C23.0021 8.27298 22.9856 7.07554 22.7011 5.96013C22.414 4.83517 21.862 3.93337 21.0606 3.27973C20.1935 2.57286 19.1351 2.1767 17.9144 2.10251C16.1949 1.9978 14.4249 1.94954 12.5017 1.95374C10.5743 1.94916 8.80413 1.9978 7.08466 2.10251C5.86395 2.1767 4.80556 2.57286 3.93848 3.27973C3.13702 3.93337 2.58503 4.83517 2.29797 5.96013C2.0134 7.07554 1.99699 8.27279 1.98116 9.43093C1.96877 10.3383 1.9558 11.4127 1.95312 12.5027C1.9558 13.588 1.96877 14.6626 1.98116 15.5699C1.99699 16.7279 2.0134 17.9253 2.29797 19.0405C2.58503 20.1655 3.13702 21.0673 3.93848 21.7209C4.80556 22.4278 5.86395 22.824 7.08466 22.8982C8.80413 23.0029 10.5747 23.0517 12.4971 23.0469ZM12.4506 18.604C9.08527 18.604 6.34708 15.8659 6.34708 12.5004C6.34708 9.13491 9.08527 6.39691 12.4506 6.39691C15.8161 6.39691 18.5541 9.13491 18.5541 12.5004C18.5541 15.8659 15.8161 18.604 12.4506 18.604ZM12.4506 8.35004C10.1622 8.35004 8.30021 10.212 8.30021 12.5004C8.30021 14.7889 10.1622 16.6508 12.4506 16.6508C14.7392 16.6508 16.601 14.7889 16.601 12.5004C16.601 10.212 14.7392 8.35004 12.4506 8.35004ZM19.2377 4.44378C18.4288 4.44378 17.7729 5.09953 17.7729 5.90863C17.7729 6.71772 18.4288 7.37347 19.2377 7.37347C20.0468 7.37347 20.7026 6.71772 20.7026 5.90863C20.7026 5.09953 20.0468 4.44378 19.2377 4.44378Z" fill="black"/>
</svg>
