<svg width="200" height="73" viewBox="0 0 200 73" fill="none" xmlns="http://www.w3.org/2000/svg">
<path d="M35.7279 41.9311C35.97 46.0961 37.5189 44.9199 38.4655 42.3406C41.4115 34.3146 39.1957 38.1804 40.8587 32.6968C41.0168 32.1753 41.2993 31.801 41.7061 31.5743C41.8415 31.5062 41.9376 31.2908 41.9941 30.928C42.0507 30.5652 42.1015 30.2703 42.1466 30.0434C42.1919 29.7487 42.2992 29.4821 42.4687 29.2441C42.6382 29.0061 42.768 28.7396 42.8585 28.4447C42.8811 28.3766 42.9031 28.0685 43.0958 28.1216C43.8215 28.3214 45.631 28.4678 44.6887 28.6147C44.197 28.6914 44.0787 29.3291 43.8075 29.6013C43.604 29.7374 43.4235 29.9641 43.2653 30.2816C43.107 30.5991 42.9602 30.9164 42.8246 31.234C42.689 31.5517 42.5648 31.8293 42.4518 32.0675C42.3389 32.3055 42.2372 32.4247 42.1466 32.4247C42.0788 32.4247 42.028 32.3848 41.9941 32.3055C41.9602 32.2262 41.8981 32.1865 41.8076 32.1865C41.7398 32.1865 41.6834 32.3566 41.6383 32.6967C41.593 33.0369 41.5648 33.4394 41.5536 33.9042C41.5241 35.107 41.2382 37.6035 40.9942 38.7178C40.0448 43.0549 38.5969 46.5362 36.588 47.4093C36.4532 47.468 36.328 47.4943 36.2151 47.4943C35.8309 47.4488 35.6846 47.086 35.3338 46.9501C34.1916 46.5074 33.3001 41.67 33.3001 40.0104C33.3001 32.8486 34.3169 25.7294 34.3169 18.409C34.3169 18.1369 34.3225 17.8705 34.3339 17.6097C34.3452 17.3488 34.3508 17.0938 34.3508 16.8443C34.3508 16.5949 34.3169 16.3793 34.2492 16.198C34.1813 16.0165 34.1475 15.8352 34.1475 15.6537C34.1475 15.2909 34.3283 15.0697 34.6899 14.9905C35.0513 14.9111 35.3904 14.8713 35.7067 14.8713C36.2716 14.8713 36.6164 14.9507 36.7406 15.1095C36.8648 15.2683 36.9271 15.5744 36.9271 16.0279C36.9271 16.4814 36.9043 16.9577 36.8591 17.4566C36.011 26.815 35.3378 35.2235 35.7279 41.9307V41.9311ZM42.4518 30.69C42.4518 30.5992 42.4292 30.5539 42.3839 30.5539C42.3387 30.5539 42.3161 30.5766 42.3161 30.6219C42.3161 30.6447 42.3217 30.6617 42.333 30.673C42.3444 30.6845 42.35 30.7014 42.35 30.7241C42.3953 30.7241 42.429 30.7128 42.4517 30.6901L42.4518 30.69ZM57.6365 27.9345C57.6365 27.8892 57.6592 27.8665 57.7045 27.8665C57.7948 27.8665 57.9191 27.9289 58.0772 28.0536C58.4397 28.3393 58.3679 28.647 58.0094 28.887C57.8059 29.0231 57.4331 29.1137 56.8909 29.1591C56.3034 29.2045 55.744 29.3405 55.2131 29.5673C54.682 29.7941 54.1679 30.0323 53.6708 30.2817C53.3545 30.4405 53.0946 30.5823 52.8913 30.7069C52.6879 30.8316 52.5242 30.9564 52.4 31.081C52.2756 31.2058 52.1853 31.3475 52.1288 31.5063C52.0723 31.665 52.0329 31.869 52.0102 32.1186C52.0102 32.1641 51.9819 32.3455 51.9255 32.6628C51.3405 35.9513 49.013 42.8255 44.5873 41.7796C44.2033 41.689 43.8415 41.5189 43.5027 41.2693C43.0507 40.9066 42.644 40.4643 42.2826 39.9427C41.9661 39.489 41.6895 38.9334 41.4522 38.2758C40.6674 36.1006 41.3675 35.6958 41.3675 34.0237C41.3675 33.9102 41.407 33.7344 41.4861 33.4963C41.5651 33.2583 41.6443 32.9919 41.7234 32.697C41.8023 32.4022 41.8815 32.113 41.9605 31.8295C42.0396 31.546 42.0791 31.3022 42.0791 31.0981C42.0791 30.9166 42.0282 30.7013 41.9265 30.4518C41.8249 30.2024 41.7175 29.936 41.6045 29.6525C41.4916 29.3689 41.3842 29.0854 41.2825 28.802C41.1808 28.5185 41.1299 28.252 41.1299 28.0027C41.1299 21.3082 50.2206 23.9985 51.4 28.1388C51.4678 28.4108 51.5469 28.6886 51.6372 28.9722C51.7276 29.2556 51.9198 29.3973 52.2135 29.3973C52.2813 29.3973 52.383 29.3746 52.5186 29.3292C53.3773 29.0345 54.219 28.7396 55.0436 28.4447C55.8685 28.1499 56.7328 27.9798 57.6367 27.9345H57.6365ZM50.0781 32.3569C50.0781 32.1755 49.9538 32.0847 49.7053 32.0847C49.0951 32.3116 48.4796 32.527 47.858 32.731C47.2366 32.9353 46.5955 32.9777 45.9431 33.0372C45.5937 33.0691 44.0177 33.8869 43.8823 34.329C43.8052 34.5808 43.1206 38.4777 45.5702 39.0414C47.8883 39.5747 50.0783 34.2887 50.0783 32.3569H50.0781ZM43.4686 26.3528C43.333 26.5909 43.2257 26.8516 43.1465 27.1352C43.0676 27.4187 43.028 27.6851 43.028 27.9345C43.028 28.0933 43.045 28.303 43.0789 28.5638C43.1128 28.8247 43.2427 28.9551 43.4686 28.9551C43.5138 28.9551 43.5364 28.9437 43.5364 28.9211C44.4785 27.9753 44.0762 28.1779 45.2989 28.5129C45.5474 28.5809 45.8074 28.6715 46.0784 28.785C46.3496 28.8984 46.5925 29.0345 46.8073 29.1932C47.0218 29.352 47.1293 29.5334 47.1293 29.7375C47.1293 29.8962 47.0502 30.1002 46.8921 30.3498C46.7339 30.5992 46.6548 30.8035 46.6548 30.9621C46.6548 31.0982 46.7057 31.1832 46.8074 31.2172C46.909 31.2513 47.0051 31.2683 47.0954 31.2683C47.3214 31.2456 47.5926 31.2059 47.9089 31.1493C48.2253 31.0926 48.5361 31.0132 48.8409 30.9112C49.146 30.8093 49.4059 30.6846 49.6204 30.5371C49.8351 30.3897 49.9426 30.2138 49.9426 30.0098C49.9426 29.8965 49.9368 29.7945 49.9255 29.7036C49.9143 29.613 49.886 29.5108 49.8409 29.3974C49.0166 27.5593 45.4331 22.9018 43.4686 26.353V26.3528ZM56.3146 24.6009C56.6083 24.5328 56.8908 24.4989 57.1619 24.4989C57.6139 24.4989 58.0207 24.5952 58.382 24.788C58.7437 24.9808 59.0542 25.2359 59.3142 25.5535C59.574 25.8709 59.7719 26.2281 59.9073 26.6249C61.0557 29.9869 58.9192 36.447 59.4327 39.0244C59.5457 39.5914 59.7605 40.1243 60.0767 40.6233C60.0993 40.6233 60.1106 40.6346 60.1106 40.6573C60.1106 40.68 60.1049 40.7084 60.0937 40.7423C60.0823 40.7763 60.0767 40.816 60.0767 40.8613C60.122 40.884 60.1557 40.9238 60.1784 40.9804C60.201 41.0372 60.2801 41.0995 60.4156 41.1675C60.4834 40.8955 60.5964 40.5949 60.7545 40.266C60.8275 40.1141 62.0462 35.2943 62.2459 34.6361C62.4041 34.1146 62.5452 33.5814 62.6695 33.0372C62.7938 32.493 62.8898 31.9032 62.9576 31.2683C63.1611 31.2229 63.3586 31.1777 63.5508 31.1322C63.743 31.0868 63.9293 31.0642 64.1102 31.0642C64.2683 31.0642 64.4434 31.0868 64.6355 31.1322C65.5932 31.3586 65.8442 31.5676 67.2284 31.8125C67.4319 31.8125 67.5843 31.6368 67.686 31.2854C68.4903 28.5058 68.6332 25.6812 71.7026 24.1417C71.951 24.0169 72.2109 23.9545 72.4821 23.9545C74.7338 23.9545 76.3952 26.5377 75.4648 28.717C75.2614 29.1933 74.9846 29.6354 74.6343 30.0437C74.2841 30.452 73.8717 30.8093 73.3972 31.1152C72.9226 31.4215 72.4257 31.6539 71.9058 31.8125C71.5445 31.9941 71.2111 32.1529 70.906 32.289C70.6009 32.4251 70.3354 32.6178 70.1095 32.8672C70.1095 32.9127 70.1378 32.9862 70.1942 33.0883C70.7641 34.1173 69.6031 39.0708 71.0585 39.7558C71.42 39.9259 71.7252 40.0109 71.9736 40.0109C73.7664 40.0109 77.6375 31.2818 77.9052 29.8055C77.9505 29.5561 78.0181 29.3405 78.1087 29.1593C78.199 28.9779 78.3458 28.8871 78.5494 28.8871C78.6623 28.8871 78.8204 28.8871 79.0238 28.8871C79.2273 28.8871 79.329 29.0799 79.329 29.4655C77.9558 31.6698 75.0131 41.5417 71.906 41.5417C71.4993 41.5417 71.0416 41.5019 70.5334 41.4226C70.0251 41.3433 69.6158 41.1636 69.2962 40.8955C67.2962 39.2164 67.2913 36.4078 67.5128 33.308C67.1964 33.0131 67.0308 33.1054 66.7711 32.9693C65.9521 32.5404 65.0928 32.6786 64.212 32.561C64.0539 32.8559 63.89 33.1621 63.7207 33.4795C63.551 33.7969 63.4664 34.1939 63.4664 34.6701C63.317 36.3195 63.2978 43.3107 60.5517 43.3107C59.851 43.3107 59.303 43.1292 58.9078 42.7665C58.5123 42.4036 58.1959 41.9556 57.9588 41.4227C57.7215 40.89 57.518 40.3285 57.3485 39.7389C56.313 36.1355 56.0466 32.4753 56.9588 28.6831V28.547C56.9588 28.4109 56.9362 28.2749 56.8909 28.1389C56.8457 28.0028 56.8006 27.8553 56.7553 27.6966C56.7102 27.175 56.6536 26.6647 56.5858 26.1658C56.5179 25.6669 56.4276 25.1453 56.3148 24.6011L56.3146 24.6009ZM72.889 25.6894C72.2392 26.0807 70.8311 29.7967 70.7876 30.2987C70.765 30.5595 70.7085 30.8259 70.6181 31.0981C71.5671 30.7806 72.3185 30.3667 72.872 29.8565C73.4256 29.3462 73.8719 28.7169 74.2108 27.9685C74.0897 27.2991 74.0763 26.5407 73.5669 26.0294C73.4088 25.8706 73.1827 25.7573 72.889 25.6892V25.6894Z" fill="black"/>
<path d="M85.125 34.1599C85.1427 33.7064 85.204 33.2187 85.3623 32.6969C85.5204 32.1755 85.8061 31.8069 86.2096 31.5744C91.9296 28.2761 86.2535 31.8547 86.1418 32.6969C86.0965 33.0372 86.0684 33.4396 86.0571 33.9045C85.9726 37.365 85.2208 45.2321 81.9728 47.5626C81.6111 47.5626 80.0775 47.3254 79.8374 46.9503C78.2197 44.425 77.6342 39.6459 77.6342 36.7449C77.6342 32.9041 79.8354 19.0987 78.7528 16.1983C78.6848 16.0167 78.6511 15.8355 78.6511 15.6539C78.6511 15.2911 78.8318 15.0699 79.1934 14.9907C79.5548 14.9114 79.8939 14.8716 80.2103 14.8716C80.7751 14.8716 81.1199 14.9509 81.2441 15.1097C81.3683 15.2685 81.4306 15.5746 81.4306 16.0282C81.4306 17.6001 79.3175 33.5596 80.3298 41.5031C80.691 44.3384 81.5824 45.6684 82.5038 45.1737C83.6547 44.5558 84.8527 41.092 85.1251 34.1596L85.125 34.1599ZM91.3108 56.3394C90.8984 56.3394 90.5821 56.294 90.3562 56.2033C81.7081 52.7301 95.5473 39.1971 96.3103 35.1123C96.5747 33.2562 97.1923 31.4454 96.9374 29.5674C96.9035 29.3179 96.8415 29.1081 96.7509 28.938C96.6606 28.7679 96.5475 28.6829 96.412 28.6829C96.2765 28.6829 96.1635 28.7226 96.0729 28.802C93.873 30.7348 92.3499 34.1005 90.5482 35.7587C89.8249 35.6906 89.2318 35.4979 88.7687 35.1802C88.3054 34.8629 87.9383 34.4659 87.6671 33.9896C87.3959 33.5133 87.2095 32.986 87.1078 32.4078C86.7345 30.285 87.153 26.9922 87.735 25.094C87.8706 24.6517 88.0343 24.2833 88.2263 23.9884C88.4185 23.6936 88.6387 23.5462 88.8873 23.5462C89.2263 23.5462 89.52 23.6198 89.7685 23.7673C90.017 23.9147 90.2318 24.0905 90.4126 24.2944C90.5933 24.4987 90.7289 24.7141 90.8192 24.9407C90.9095 25.1674 90.9548 25.3717 90.9548 25.5532C90.9548 26.3469 90.8531 27.1634 90.6497 28.0025C90.4463 28.8416 90.3446 29.6466 90.3446 30.4178C90.3446 30.7127 90.4237 30.8599 90.5819 30.8599C90.6947 30.8599 90.8586 30.7864 91.0732 30.639C91.2879 30.4915 91.5083 30.3213 91.7342 30.1287C92.0335 29.8734 96.8685 24.9327 97.6318 24.5499C97.8804 24.4252 98.1403 24.3628 98.4114 24.3628C98.6148 24.3628 98.8464 24.4024 99.1062 24.4818C99.366 24.5611 99.6089 24.669 99.835 24.805C100.061 24.941 100.253 25.0942 100.411 25.2643C100.569 25.4344 100.648 25.5988 100.648 25.7574C100.648 28.4547 99.6516 30.6923 99.4452 32.765C99.4113 33.1053 99.3943 33.434 99.3943 33.7516C99.3943 33.9783 99.496 34.0918 99.6994 34.0918C99.8802 34.0918 100.125 33.8972 100.547 33.7347C101.615 33.3221 103.793 32.1848 105.594 31.5698C106.095 31.3989 109.334 30.7454 108.512 31.9826C108.422 32.1187 108.297 32.198 108.139 32.2208C106.921 32.2208 99.9279 36.2655 98.547 38.259C98.3661 38.5197 98.1173 38.8175 98.0047 39.2284C97.5177 41.0055 97.4623 40.0631 97.4623 42.426C97.4623 45.2108 95.6516 56.3393 91.3105 56.3393L91.3108 56.3394ZM90.4465 53.3968C90.5594 53.6122 90.7741 53.72 91.0904 53.72C94.1219 53.72 95.6661 44.2032 95.6661 41.8819C95.6661 41.8365 95.6491 41.7458 95.6152 41.6097C95.5813 41.4737 95.4966 41.4056 95.3611 41.4056C95.2931 41.4056 95.1689 41.519 94.9882 41.7458C94.8074 41.9726 94.6098 42.2389 94.395 42.5451C93.0119 44.5181 89.1345 50.8947 90.4463 53.3968H90.4465ZM96.1068 42.5622C95.8502 42.5622 96.0072 42.9005 96.1748 42.7323C96.2648 42.6422 96.3028 42.6606 96.1068 42.5622Z" fill="black"/>
<path d="M163.066 29.0521C163.247 24.3652 171.489 21.0522 175.418 20.4683C178.245 20.0483 181.284 20.0094 184.202 20.1877C186.093 20.3029 194.146 21.8794 197.015 22.2635C197.319 22.3041 197.815 22.5044 198.094 21.3399C198.98 17.6579 198.717 26.3938 198.033 27.1659C198.062 25.2462 197.095 24.7888 195.472 24.3634C187.928 22.3855 170.197 18.408 164.083 27.5894C163.893 27.8731 164.009 28.3317 163.998 28.7968C163.913 32.2574 163.161 40.1242 159.914 42.4549C159.552 42.4549 158.018 42.2176 157.778 41.8425C156.16 39.3171 155.575 34.5381 155.575 31.6371C155.575 27.7963 157.776 13.9908 156.693 11.0903C156.626 10.9088 156.592 10.7278 156.592 10.5463C156.592 10.1833 156.772 9.96198 157.134 9.88292C157.496 9.80372 157.835 9.76392 158.151 9.76392C158.716 9.76392 159.061 9.84298 159.185 10.0019C159.309 10.1607 159.371 10.4667 159.371 10.9205C159.371 12.4922 157.258 28.4518 158.27 36.3953C158.632 39.2307 159.523 40.5607 160.445 40.0658C161.595 39.4479 162.793 35.9839 163.066 29.0519L163.066 29.0521Z" fill="black"/>
<path d="M124.092 52.6093C124.092 52.7453 124.036 52.8757 123.923 53.0004C123.81 53.1251 123.753 53.2556 123.753 53.3917C123.753 54.1627 123.488 54.7806 122.957 55.2455C122.426 55.7105 121.81 55.943 121.109 55.943C120.929 55.943 120.742 55.9316 120.55 55.9089C120.358 55.8863 120.172 55.8182 119.991 55.7047C119.539 55.4098 119.138 55.1321 118.788 54.8713C118.437 54.6105 118.138 54.293 117.89 53.9188C117.641 53.5447 117.454 53.0853 117.33 52.5411C117.206 51.9968 117.144 51.2938 117.144 50.4321C117.144 50.0465 117.183 49.6609 117.262 49.2753C118.394 43.7579 120.941 38.5584 124.99 34.4948C125.16 34.3246 125.278 34.2396 125.346 34.2396C126.7 34.2396 127.007 27.1151 127.007 25.9393C127.007 25.7579 127.001 25.5538 126.99 25.3269C126.979 25.1002 126.905 24.9867 126.77 24.9867C126.657 24.9867 126.589 25.0322 126.566 25.1228C126.453 25.4403 126.301 25.6841 126.109 25.8542C122.64 28.9276 121.671 30.9412 119.143 33.3721C118.872 33.633 118.59 33.7973 118.296 33.8652C117.257 33.8652 116.449 33.5819 115.872 33.0148C113.012 30.1999 118.349 23.4323 120.296 22.0442C121.714 21.0326 124.458 20.361 125.905 21.7551C126.188 22.0271 126.465 22.1632 126.736 22.1632C126.894 22.1632 127.041 22.0613 127.176 21.857C127.493 21.5395 127.662 21.3128 127.685 21.1767C127.707 21.0406 127.843 20.9726 128.091 20.9726C128.34 20.9726 128.639 21.001 128.99 21.0576C129.34 21.1143 129.667 21.222 129.973 21.3809C130.278 21.5395 130.537 21.7435 130.752 21.9931C130.967 22.2425 131.074 22.5715 131.074 22.9796C131.074 23.3199 131.006 23.711 130.871 24.1534C130.735 24.5955 130.588 25.0605 130.43 25.548C130.272 26.0356 130.125 26.5403 129.989 27.0618C129.854 27.5834 129.786 28.0823 129.786 28.5586C129.786 28.7851 129.707 29.0007 129.549 29.2048C129.391 29.409 129.312 29.6243 129.312 29.8511C129.312 30.0778 129.346 30.2139 129.413 30.2592C129.481 30.3047 129.583 30.3274 129.718 30.3274C129.944 30.3274 130.136 30.2481 130.295 30.0893C130.66 29.7236 132.48 29.0688 133.006 29.0688C133.096 29.0688 133.226 29.0915 133.396 29.1368C133.565 29.1823 133.735 29.2502 133.904 29.3411C134.074 29.4317 134.221 29.5507 134.345 29.6981C134.469 29.8455 134.531 30.0099 134.531 30.1913C134.531 30.3727 134.481 30.4974 134.379 30.5654C134.277 30.6335 134.159 30.6788 134.023 30.7015C133.887 30.7242 133.758 30.7355 133.633 30.7355C133.509 30.7355 133.413 30.7696 133.345 30.8376C132.97 31.2139 130.332 32.7237 129.617 33.0827C129.526 33.1281 129.397 33.2301 129.227 33.3889C129.057 33.5478 128.803 33.8425 128.464 34.2734C128.413 34.3253 124.092 51.3265 124.092 52.609L124.092 52.6093ZM125.516 39.9376C125.618 39.5945 125.646 39.2233 125.702 38.8492C125.759 38.475 125.787 38.1404 125.787 37.8456C125.787 37.7776 125.73 37.7039 125.617 37.6246C125.504 37.5452 125.425 37.5054 125.38 37.5054C125.335 37.5054 125.267 37.5396 125.177 37.6075C125.087 37.6757 124.99 37.7606 124.889 37.8627C122.418 40.342 119.042 47.3639 119.042 51.2486C119.042 51.7475 119.121 52.2749 119.279 52.8304C119.437 53.386 119.765 53.7658 120.262 53.97C124.271 53.0787 124.489 43.3829 125.516 39.9377V39.9376ZM125.889 23.422C125.798 23.3314 125.725 23.2406 125.668 23.15C125.612 23.0592 125.504 23.0139 125.346 23.0139C125.233 23.0139 125.047 23.0874 124.787 23.235C124.527 23.3823 124.228 23.5637 123.889 23.7792C121.282 25.4364 120.282 26.675 118.618 29.4602C118.517 29.6302 118.466 29.7493 118.466 29.8172C118.511 29.9306 118.528 30.0101 118.517 30.0554C118.505 30.1008 118.556 30.1236 118.669 30.1236C118.692 30.1236 118.714 30.1121 118.737 30.0894C119.076 29.8853 119.398 29.6415 119.703 29.358C120.542 28.5785 124.859 24.3234 125.431 24.0684C125.533 24.023 125.629 23.9607 125.719 23.8812C125.81 23.8019 125.866 23.6487 125.889 23.4219L125.889 23.422ZM133.176 29.6473C133.176 29.5112 133.204 29.2108 133.261 28.7458C133.495 26.8131 133.901 23.6727 134.684 21.9421C134.854 21.568 135.029 21.381 135.21 21.381C135.458 21.381 135.729 21.4263 136.023 21.5171C136.317 21.6077 136.588 21.687 136.836 21.7551C137.062 21.8231 137.271 22.0158 137.464 22.3335C137.656 22.6508 137.819 23.0137 137.955 23.4219C139.096 26.8571 137.198 30.6409 138.277 34.0864C138.401 34.4833 138.576 34.6818 138.802 34.6818C138.893 34.6818 138.96 34.659 139.006 34.6136C139.729 33.7519 140.378 32.9071 140.955 32.0793C141.531 31.2515 141.943 30.2821 142.192 29.171C142.26 28.8306 142.401 28.5642 142.615 28.3715C142.83 28.1787 143.073 28.0823 143.344 28.0823C143.57 28.0823 143.762 28.1334 143.92 28.2354C144.079 28.3375 144.158 28.4905 144.158 28.6947C144.158 28.8307 144.107 28.9781 144.005 29.1369C143.904 29.2957 143.785 29.4659 143.649 29.6471C143.514 29.8287 143.384 30.0099 143.26 30.1915C143.135 30.3729 143.051 30.5541 143.005 30.7357C142.983 30.8039 142.943 30.9058 142.887 31.0419C142.83 31.178 142.768 31.3253 142.7 31.4841C142.632 31.643 142.553 31.8016 142.463 31.9604C142.373 32.1191 142.282 32.2325 142.192 32.3007C142.034 32.414 141.955 32.5558 141.955 32.7259C141.955 34.1033 139.192 36.9214 138.243 37.1482C138.006 37.205 137.786 37.2332 137.582 37.2332C137.311 37.2332 137.017 37.1595 136.701 37.0122C135.312 36.3649 133.312 33.5272 133.312 31.9266C133.312 31.541 133.289 31.161 133.244 30.7869C133.198 30.4127 133.176 30.0328 133.176 29.6473H133.176ZM135.718 16.5165C135.718 16.3351 135.752 16.1196 135.82 15.8702C135.888 15.6207 136.068 15.4961 136.362 15.4961C136.565 15.5414 136.763 15.5754 136.955 15.5982C137.147 15.6207 137.328 15.6662 137.497 15.7341C137.667 15.8021 137.803 15.8928 137.904 16.0063C138.006 16.1196 138.057 16.2785 138.057 16.4826C138.057 16.868 137.955 17.248 137.752 17.6221C137.548 17.9963 137.221 18.1835 136.769 18.1835C136.565 18.1835 136.396 18.1268 136.26 18.0134C136.125 17.8999 136.017 17.7582 135.938 17.5881C135.859 17.418 135.803 17.2366 135.769 17.0439C135.735 16.851 135.718 16.6753 135.718 16.5166L135.718 16.5165ZM142.158 29.8174C142.248 29.7946 142.333 29.7154 142.412 29.5794C142.491 29.4433 142.565 29.2902 142.632 29.1201C142.7 28.9499 142.768 28.7798 142.836 28.6098C142.904 28.4398 142.971 28.3207 143.039 28.2528C143.017 28.1393 143.005 27.9806 143.005 27.7764C143.005 27.4816 143.068 27.1867 143.192 26.8919C143.316 26.5972 143.378 26.359 143.378 26.1775C143.459 25.0465 144.799 22.3895 145.48 21.1939C145.615 20.9558 145.751 20.746 145.886 20.5645C146.022 20.3831 146.124 20.2923 146.192 20.2923C146.237 20.2923 146.276 20.2981 146.31 20.3094C146.344 20.3208 146.384 20.3265 146.429 20.3265C146.61 20.3265 146.79 20.3037 146.971 20.2583C147.152 20.213 147.333 20.1902 147.513 20.1902C147.784 20.1902 147.994 20.2583 148.141 20.3944C148.287 20.5305 148.406 20.7007 148.496 20.9046C148.587 21.1088 148.66 21.3241 148.717 21.551C148.773 21.7775 148.824 21.9818 148.869 22.1632C148.869 22.2767 148.858 22.3786 148.835 22.4695C148.813 22.5602 148.79 22.6848 148.767 22.8435C149.061 22.4581 149.394 22.0724 149.767 21.6869C150.14 21.3015 150.349 20.9952 150.394 20.7686C150.417 20.6325 150.524 20.4568 150.716 20.2413C150.908 20.0259 151.14 19.8105 151.411 19.5951C151.682 19.3796 151.97 19.1981 152.276 19.0509C152.581 18.9033 152.88 18.8298 153.174 18.8298C153.626 18.8298 154.004 18.9317 154.309 19.1358C154.614 19.34 154.857 19.5952 155.038 19.9014C155.219 20.2075 155.343 20.542 155.411 20.9048C155.479 21.2676 155.512 21.5967 155.512 21.8913C155.512 22.549 155.428 23.0424 155.258 23.3712C155.089 23.7 154.756 24.0458 154.258 24.4086C154.1 24.522 153.987 24.6637 153.919 24.834C153.852 25.0041 153.795 25.1628 153.75 25.3101C153.705 25.4577 153.654 25.5881 153.597 25.7014C153.541 25.8148 153.445 25.8716 153.309 25.8716C152.948 25.8716 152.688 25.6561 152.53 25.2251C152.372 24.7943 152.259 24.3236 152.191 23.8135C152.123 23.3033 152.072 22.8326 152.038 22.4018C152.004 21.9708 151.92 21.7555 151.784 21.7555C151.761 21.7555 151.75 21.7612 151.75 21.7724C151.75 21.7839 151.739 21.7895 151.716 21.7895C151.377 21.9937 151.022 22.3007 150.649 22.7078C146.002 27.7684 145.589 33.6585 144.429 37.3695C144.311 37.7474 144.073 38.067 143.836 38.373C143.599 38.6794 143.322 38.8324 143.005 38.8324C142.576 38.8324 142.276 38.5944 142.107 38.1179C141.786 37.2162 141.79 33.5954 141.904 32.8962C141.983 32.4087 142.135 32.0288 142.361 31.7567C142.361 31.734 142.367 31.7169 142.378 31.7056C142.389 31.6942 142.395 31.6658 142.395 31.6206C142.395 31.5073 142.367 31.4052 142.31 31.3143C142.254 31.2237 142.226 31.1329 142.226 31.0423C142.226 30.8836 142.248 30.7077 142.294 30.515C142.339 30.3222 142.384 30.158 142.429 30.0219L142.158 29.8176V29.8174Z" fill="black"/>
<path d="M1.00096 0H200V73H0.000335693V0H1.00109H1.00096ZM197.998 1.76223H2.00171V71.1039H197.998V1.76223Z" fill="black"/>
<path d="M34.5513 31.5997C32.5576 36.8611 26.1278 39.5996 22.1991 40.1835C13.8335 41.4266 10.8493 39.3714 3.15192 38.4514C2.19261 38.3371 2.0459 39.2831 1.90166 41.3048C1.86776 41.7821 0.55396 39.1211 0.325592 39.0146C1.11761 36.6733 1.24744 31.5877 1.93117 30.8164C2.13538 30.5858 1.89741 35.8841 4.31929 36.3338C11.6214 37.6892 27.7339 41.773 33.5345 33.0625C33.7236 32.7786 33.6079 32.3201 33.6193 31.8551C33.7561 26.2632 34.7805 30.9948 34.5513 31.5997Z" fill="black"/>
<path d="M37.3642 59.8263H36.9459V64.9631H41.4184V64.6551H37.3642V59.8263ZM54.9926 59.8263H54.5827V64.9631H54.9926V59.8263ZM69.19 64.9631V60.3402L73.7221 64.9631H74.1488V59.8263H73.7393V64.4494L69.2069 59.8263H68.7801V64.9631H69.19ZM93.2966 61.0595C92.8186 60.164 91.7773 59.7383 90.6592 59.7383C88.8925 59.7383 87.5609 60.8907 87.5609 62.3947C87.5609 63.914 88.9008 65.0366 90.6592 65.0366C91.786 65.0366 92.9041 64.5963 93.399 63.6644V62.2848H90.531V62.5856H93.0235V63.6132C92.5795 64.3764 91.6065 64.7137 90.6591 64.7137C89.1398 64.7137 87.979 63.7231 87.979 62.3947C87.979 61.0739 89.1312 60.0689 90.6591 60.0689C91.632 60.0689 92.5197 60.4355 92.9806 61.1841L93.2964 61.0595H93.2966ZM111.531 60.1348V59.8264H107.05V64.9633H111.531V64.6553H107.468V62.549H111.377V62.2409H107.468V60.1348H111.531ZM127.999 59.8264H125.028V64.9633H125.447V62.7911H127.06L129.689 64.9633H130.218V64.9414L127.615 62.7838H128.076C129.339 62.7838 130.201 62.1968 130.201 61.2942C130.201 60.8834 130.013 60.4797 129.638 60.2228C129.177 59.9073 128.537 59.8266 127.999 59.8266L127.999 59.8264ZM128.076 62.4827H125.447V60.1348H127.999C128.767 60.1348 129.783 60.3548 129.783 61.2942C129.783 61.9767 129.253 62.4538 128.076 62.4829V62.4827ZM143.963 59.8264H143.553V64.9633H143.963V59.8264ZM162.231 60.1348V59.8264H157.75V64.9633H162.231V64.6553H158.169V62.549H162.078V62.2409H158.169V60.1348H162.231Z" fill="black"/>
</svg>
