<svg width="199" height="57" viewBox="0 0 199 57" fill="none" xmlns="http://www.w3.org/2000/svg">
<path d="M35.7279 32.9312C35.97 37.0962 37.5189 35.92 38.4655 33.3407C41.4115 25.3147 39.1957 29.1804 40.8587 23.6969C41.0168 23.1754 41.2993 22.8011 41.7061 22.5743C41.8415 22.5063 41.9376 22.2909 41.9941 21.9281C42.0507 21.5653 42.1015 21.2704 42.1466 21.0435C42.1919 20.7488 42.2992 20.4822 42.4687 20.2442C42.6382 20.0062 42.768 19.7397 42.8585 19.4448C42.8811 19.3767 42.9031 19.0686 43.0958 19.1216C43.8215 19.3215 45.631 19.4679 44.6887 19.6147C44.197 19.6915 44.0787 20.3292 43.8075 20.6014C43.604 20.7375 43.4235 20.9642 43.2653 21.2817C43.107 21.5992 42.9602 21.9165 42.8246 22.2341C42.689 22.5518 42.5648 22.8294 42.4518 23.0676C42.3389 23.3056 42.2372 23.4247 42.1466 23.4247C42.0788 23.4247 42.028 23.3849 41.9941 23.3056C41.9602 23.2263 41.8981 23.1866 41.8076 23.1866C41.7398 23.1866 41.6834 23.3567 41.6383 23.6968C41.593 24.037 41.5648 24.4395 41.5536 24.9043C41.5241 26.1071 41.2382 28.6036 40.9942 29.7179C40.0448 34.055 38.5969 37.5362 36.588 38.4094C36.4532 38.468 36.328 38.4944 36.2151 38.4944C35.8309 38.4489 35.6846 38.0861 35.3338 37.9501C34.1916 37.5075 33.3001 32.6701 33.3001 31.0104C33.3001 23.8487 34.3169 16.7295 34.3169 9.40912C34.3169 9.13694 34.3225 8.87056 34.3339 8.60982C34.3452 8.34894 34.3508 8.09385 34.3508 7.8444C34.3508 7.59496 34.3169 7.3794 34.2492 7.19813C34.1813 7.01659 34.1475 6.83533 34.1475 6.65379C34.1475 6.29098 34.3283 6.06977 34.6899 5.99057C35.0513 5.91123 35.3904 5.87143 35.7067 5.87143C36.2716 5.87143 36.6164 5.95077 36.7406 6.10958C36.8648 6.26839 36.9271 6.57445 36.9271 7.02802C36.9271 7.48146 36.9043 7.95776 36.8591 8.45665C36.011 17.8151 35.3378 26.2236 35.7279 32.9308V32.9312ZM42.4518 21.6901C42.4518 21.5993 42.4292 21.554 42.3839 21.554C42.3387 21.554 42.3161 21.5767 42.3161 21.622C42.3161 21.6447 42.3217 21.6618 42.333 21.6731C42.3444 21.6846 42.35 21.7015 42.35 21.7242C42.3953 21.7242 42.429 21.7129 42.4517 21.6902L42.4518 21.6901ZM57.6365 18.9346C57.6365 18.8893 57.6592 18.8666 57.7045 18.8666C57.7948 18.8666 57.9191 18.9289 58.0772 19.0537C58.4397 19.3394 58.3679 19.6471 58.0094 19.8871C57.8059 20.0231 57.4331 20.1138 56.8909 20.1592C56.3034 20.2045 55.744 20.3406 55.2131 20.5674C54.682 20.7942 54.1679 21.0324 53.6708 21.2818C53.3545 21.4406 53.0946 21.5824 52.8913 21.707C52.6879 21.8317 52.5242 21.9564 52.4 22.0811C52.2756 22.2059 52.1853 22.3476 52.1288 22.5064C52.0723 22.6651 52.0329 22.8691 52.0102 23.1187C52.0102 23.1641 51.9819 23.3455 51.9255 23.6629C51.3405 26.9514 49.013 33.8256 44.5873 32.7797C44.2033 32.6891 43.8415 32.519 43.5027 32.2694C43.0507 31.9067 42.644 31.4644 42.2826 30.9428C41.9661 30.4891 41.6895 29.9335 41.4522 29.2759C40.6674 27.1007 41.3675 26.6959 41.3675 25.0238C41.3675 24.9103 41.407 24.7345 41.4861 24.4964C41.5651 24.2583 41.6443 23.992 41.7234 23.6971C41.8023 23.4023 41.8815 23.113 41.9605 22.8296C42.0396 22.5461 42.0791 22.3023 42.0791 22.0982C42.0791 21.9166 42.0282 21.7014 41.9265 21.4519C41.8249 21.2025 41.7175 20.9361 41.6045 20.6526C41.4916 20.369 41.3842 20.0855 41.2825 19.8021C41.1808 19.5186 41.1299 19.2521 41.1299 19.0028C41.1299 12.3082 50.2206 14.9986 51.4 19.1389C51.4678 19.4109 51.5469 19.6887 51.6372 19.9723C51.7276 20.2556 51.9198 20.3974 52.2135 20.3974C52.2813 20.3974 52.383 20.3747 52.5186 20.3293C53.3773 20.0346 54.219 19.7397 55.0436 19.4448C55.8685 19.15 56.7328 18.9799 57.6367 18.9346H57.6365ZM50.0781 23.357C50.0781 23.1756 49.9538 23.0848 49.7053 23.0848C49.0951 23.3117 48.4796 23.5271 47.858 23.7311C47.2366 23.9353 46.5955 23.9778 45.9431 24.0373C45.5937 24.0692 44.0177 24.887 43.8823 25.3291C43.8052 25.5809 43.1206 29.4778 45.5702 30.0415C47.8883 30.5748 50.0783 25.2888 50.0783 23.357H50.0781ZM43.4686 17.3529C43.333 17.591 43.2257 17.8517 43.1465 18.1353C43.0676 18.4188 43.028 18.6851 43.028 18.9346C43.028 19.0934 43.045 19.303 43.0789 19.5639C43.1128 19.8248 43.2427 19.9552 43.4686 19.9552C43.5138 19.9552 43.5364 19.9438 43.5364 19.9212C44.4785 18.9754 44.0762 19.178 45.2989 19.513C45.5474 19.581 45.8074 19.6716 46.0784 19.7851C46.3496 19.8985 46.5925 20.0346 46.8073 20.1933C47.0218 20.3521 47.1293 20.5335 47.1293 20.7376C47.1293 20.8963 47.0502 21.1003 46.8921 21.3498C46.7339 21.5993 46.6548 21.8036 46.6548 21.9622C46.6548 22.0983 46.7057 22.1833 46.8074 22.2173C46.909 22.2513 47.0051 22.2684 47.0954 22.2684C47.3214 22.2457 47.5926 22.206 47.9089 22.1494C48.2253 22.0927 48.5361 22.0133 48.8409 21.9113C49.146 21.8093 49.4059 21.6847 49.6204 21.5372C49.8351 21.3898 49.9426 21.2139 49.9426 21.0099C49.9426 20.8965 49.9368 20.7946 49.9255 20.7037C49.9143 20.6131 49.886 20.5109 49.8409 20.3975C49.0166 18.5594 45.4331 13.9019 43.4686 17.3531V17.3529ZM56.3146 15.601C56.6083 15.5329 56.8908 15.499 57.1619 15.499C57.6139 15.499 58.0207 15.5953 58.382 15.7881C58.7437 15.9809 59.0542 16.236 59.3142 16.5536C59.574 16.871 59.7719 17.2281 59.9073 17.625C61.0557 20.987 58.9192 27.4471 59.4327 30.0245C59.5457 30.5914 59.7605 31.1244 60.0767 31.6234C60.0993 31.6234 60.1106 31.6347 60.1106 31.6574C60.1106 31.6801 60.1049 31.7085 60.0937 31.7424C60.0823 31.7764 60.0767 31.8161 60.0767 31.8614C60.122 31.8841 60.1557 31.9239 60.1784 31.9805C60.201 32.0373 60.2801 32.0995 60.4156 32.1676C60.4834 31.8956 60.5964 31.595 60.7545 31.2661C60.8275 31.1142 62.0462 26.2944 62.2459 25.6361C62.4041 25.1147 62.5452 24.5815 62.6695 24.0373C62.7938 23.4931 62.8898 22.9033 62.9576 22.2684C63.1611 22.223 63.3586 22.1778 63.5508 22.1323C63.743 22.0869 63.9293 22.0643 64.1102 22.0643C64.2683 22.0643 64.4434 22.0869 64.6355 22.1323C65.5932 22.3586 65.8442 22.5677 67.2284 22.8126C67.4319 22.8126 67.5843 22.6369 67.686 22.2855C68.4903 19.5059 68.6332 16.6813 71.7026 15.1418C71.951 15.017 72.2109 14.9546 72.4821 14.9546C74.7338 14.9546 76.3952 17.5378 75.4648 19.7171C75.2614 20.1934 74.9846 20.6355 74.6343 21.0438C74.2841 21.452 73.8717 21.8093 73.3972 22.1153C72.9226 22.4216 72.4257 22.654 71.9058 22.8126C71.5445 22.9942 71.2111 23.153 70.906 23.2891C70.6009 23.4252 70.3354 23.6179 70.1095 23.8673C70.1095 23.9128 70.1378 23.9863 70.1942 24.0884C70.7641 25.1174 69.6031 30.0709 71.0585 30.7559C71.42 30.926 71.7252 31.011 71.9736 31.011C73.7664 31.011 77.6375 22.2819 77.9052 20.8056C77.9505 20.5562 78.0181 20.3406 78.1087 20.1594C78.199 19.978 78.3458 19.8872 78.5494 19.8872C78.6623 19.8872 78.8204 19.8872 79.0238 19.8872C79.2273 19.8872 79.329 20.08 79.329 20.4656C77.9558 22.6699 75.0131 32.5418 71.906 32.5418C71.4993 32.5418 71.0416 32.502 70.5334 32.4227C70.0251 32.3433 69.6158 32.1637 69.2962 31.8956C67.2962 30.2165 67.2913 27.4079 67.5128 24.3081C67.1964 24.0132 67.0308 24.1055 66.7711 23.9694C65.9521 23.5404 65.0928 23.6787 64.212 23.5611C64.0539 23.856 63.89 24.1622 63.7207 24.4795C63.551 24.797 63.4664 25.194 63.4664 25.6702C63.317 27.3196 63.2978 34.3108 60.5517 34.3108C59.851 34.3108 59.303 34.1293 58.9078 33.7666C58.5123 33.4037 58.1959 32.9557 57.9588 32.4228C57.7215 31.89 57.518 31.3286 57.3485 30.739C56.313 27.1356 56.0466 23.4754 56.9588 19.6832V19.5471C56.9588 19.411 56.9362 19.2749 56.8909 19.139C56.8457 19.0029 56.8006 18.8554 56.7553 18.6967C56.7102 18.1751 56.6536 17.6648 56.5858 17.1659C56.5179 16.667 56.4276 16.1454 56.3148 15.6012L56.3146 15.601ZM72.889 16.6894C72.2392 17.0808 70.8311 20.7968 70.7876 21.2987C70.765 21.5596 70.7085 21.826 70.6181 22.0982C71.5671 21.7807 72.3185 21.3668 72.872 20.8566C73.4256 20.3463 73.8719 19.717 74.2108 18.9686C74.0897 18.2992 74.0763 17.5408 73.5669 17.0295C73.4088 16.8707 73.1827 16.7574 72.889 16.6893V16.6894Z" fill="black"/>
<path d="M85.125 25.16C85.1427 24.7065 85.204 24.2188 85.3623 23.697C85.5204 23.1755 85.8061 22.807 86.2096 22.5745C91.9296 19.2762 86.2535 22.8548 86.1418 23.697C86.0965 24.0372 86.0684 24.4397 86.0571 24.9046C85.9726 28.3651 85.2208 36.2322 81.9728 38.5626C81.6111 38.5626 80.0775 38.3255 79.8374 37.9504C78.2197 35.4251 77.6342 30.646 77.6342 27.745C77.6342 23.9042 79.8354 10.0987 78.7528 7.19838C78.6848 7.01684 78.6511 6.83557 78.6511 6.65403C78.6511 6.29123 78.8318 6.07002 79.1934 5.99082C79.5548 5.91148 79.8939 5.87167 80.2103 5.87167C80.7751 5.87167 81.1199 5.95101 81.2441 6.10982C81.3683 6.26864 81.4306 6.57469 81.4306 7.02827C81.4306 8.60015 79.3175 24.5597 80.3298 32.5032C80.691 35.3384 81.5824 36.6685 82.5038 36.1738C83.6547 35.5559 84.8527 32.0921 85.1251 25.1597L85.125 25.16ZM91.3108 47.3395C90.8984 47.3395 90.5821 47.2941 90.3562 47.2034C81.7081 43.7302 95.5473 30.1972 96.3103 26.1124C96.5747 24.2562 97.1923 22.4455 96.9374 20.5675C96.9035 20.318 96.8415 20.1082 96.7509 19.9381C96.6606 19.768 96.5475 19.683 96.412 19.683C96.2765 19.683 96.1635 19.7227 96.0729 19.802C93.873 21.7349 92.3499 25.1006 90.5482 26.7588C89.8249 26.6906 89.2318 26.4979 88.7687 26.1803C88.3054 25.863 87.9383 25.466 87.6671 24.9897C87.3959 24.5134 87.2095 23.9861 87.1078 23.4079C86.7345 21.2851 87.153 17.9923 87.735 16.0941C87.8706 15.6518 88.0343 15.2834 88.2263 14.9885C88.4185 14.6937 88.6387 14.5463 88.8873 14.5463C89.2263 14.5463 89.52 14.6199 89.7685 14.7674C90.017 14.9148 90.2318 15.0905 90.4126 15.2945C90.5933 15.4988 90.7289 15.7142 90.8192 15.9408C90.9095 16.1675 90.9548 16.3718 90.9548 16.5533C90.9548 17.347 90.8531 18.1635 90.6497 19.0026C90.4463 19.8417 90.3446 20.6467 90.3446 21.4179C90.3446 21.7128 90.4237 21.86 90.5819 21.86C90.6947 21.86 90.8586 21.7864 91.0732 21.6391C91.2879 21.4915 91.5083 21.3214 91.7342 21.1287C92.0335 20.8735 96.8685 15.9328 97.6318 15.55C97.8804 15.4252 98.1403 15.3629 98.4114 15.3629C98.6148 15.3629 98.8464 15.4025 99.1062 15.4819C99.366 15.5612 99.6089 15.669 99.835 15.8051C100.061 15.9411 100.253 16.0942 100.411 16.2644C100.569 16.4345 100.648 16.5989 100.648 16.7575C100.648 19.4548 99.6516 21.6924 99.4452 23.7651C99.4113 24.1054 99.3943 24.4341 99.3943 24.7517C99.3943 24.9784 99.496 25.0919 99.6994 25.0919C99.8802 25.0919 100.125 24.8973 100.547 24.7348C101.615 24.3222 103.793 23.1849 105.594 22.5699C106.095 22.399 109.334 21.7455 108.512 22.9827C108.422 23.1188 108.297 23.1981 108.139 23.2209C106.921 23.2209 99.9279 27.2656 98.547 29.2591C98.3661 29.5198 98.1173 29.8176 98.0047 30.2285C97.5177 32.0056 97.4623 31.0632 97.4623 33.4261C97.4623 36.2109 95.6516 47.3394 91.3105 47.3394L91.3108 47.3395ZM90.4465 44.3969C90.5594 44.6123 90.7741 44.7201 91.0904 44.7201C94.1219 44.7201 95.6661 35.2033 95.6661 32.882C95.6661 32.8366 95.6491 32.7459 95.6152 32.6098C95.5813 32.4738 95.4966 32.4057 95.3611 32.4057C95.2931 32.4057 95.1689 32.5191 94.9882 32.7459C94.8074 32.9726 94.6098 33.239 94.395 33.5452C93.0119 35.5182 89.1345 41.8948 90.4463 44.3969H90.4465ZM96.1068 33.5623C95.8502 33.5623 96.0072 33.9006 96.1748 33.7324C96.2648 33.6423 96.3028 33.6607 96.1068 33.5623Z" fill="black"/>
<path d="M163.066 20.0522C163.247 15.3653 171.489 12.0523 175.418 11.4684C178.245 11.0485 181.284 11.0095 184.202 11.1878C186.093 11.303 194.146 12.8796 197.015 13.2636C197.319 13.3042 197.815 13.5045 198.094 12.34C198.98 8.658 198.717 17.394 198.033 18.166C198.062 16.2463 197.095 15.7889 195.472 15.3635C187.928 13.3856 170.197 9.40812 164.083 18.5895C163.893 18.8733 164.009 19.3318 163.998 19.7969C163.913 23.2575 163.161 31.1243 159.914 33.455C159.552 33.455 158.018 33.2177 157.778 32.8426C156.16 30.3172 155.575 25.5382 155.575 22.6373C155.575 18.7964 157.776 4.99097 156.693 2.09046C156.626 1.90892 156.592 1.72794 156.592 1.5464C156.592 1.18345 156.772 0.962107 157.134 0.883045C157.496 0.803845 157.835 0.764038 158.151 0.764038C158.716 0.764038 159.061 0.8431 159.185 1.00205C159.309 1.16086 159.371 1.46678 159.371 1.92063C159.371 3.49237 157.258 19.4519 158.27 27.3955C158.632 30.2308 159.523 31.5608 160.445 31.0659C161.595 30.448 162.793 26.984 163.066 20.052L163.066 20.0522Z" fill="black"/>
<path d="M124.092 43.6095C124.092 43.7455 124.036 43.8759 123.923 44.0006C123.81 44.1254 123.753 44.2558 123.753 44.3919C123.753 45.1629 123.488 45.7808 122.957 46.2457C122.426 46.7107 121.81 46.9432 121.109 46.9432C120.929 46.9432 120.742 46.9318 120.55 46.9091C120.358 46.8865 120.172 46.8184 119.991 46.7049C119.539 46.41 119.138 46.1324 118.788 45.8715C118.437 45.6107 118.138 45.2932 117.89 44.919C117.641 44.5449 117.454 44.0856 117.33 43.5413C117.206 42.997 117.144 42.294 117.144 41.4323C117.144 41.0468 117.183 40.6611 117.262 40.2756C118.394 34.7581 120.941 29.5586 124.99 25.4951C125.16 25.3248 125.278 25.2398 125.346 25.2398C126.7 25.2398 127.007 18.1153 127.007 16.9395C127.007 16.7581 127.001 16.554 126.99 16.3272C126.979 16.1004 126.905 15.9869 126.77 15.9869C126.657 15.9869 126.589 16.0324 126.566 16.123C126.453 16.4405 126.301 16.6843 126.109 16.8544C122.64 19.9278 121.671 21.9414 119.143 24.3723C118.872 24.6332 118.59 24.7975 118.296 24.8655C117.257 24.8655 116.449 24.5821 115.872 24.0151C113.012 21.2001 118.349 14.4326 120.296 13.0444C121.714 12.0329 124.458 11.3612 125.905 12.7553C126.188 13.0273 126.465 13.1634 126.736 13.1634C126.894 13.1634 127.041 13.0615 127.176 12.8572C127.493 12.5397 127.662 12.313 127.685 12.1769C127.707 12.0409 127.843 11.9728 128.091 11.9728C128.34 11.9728 128.639 12.0012 128.99 12.0578C129.34 12.1145 129.667 12.2223 129.973 12.3811C130.278 12.5397 130.537 12.7437 130.752 12.9933C130.967 13.2428 131.074 13.5717 131.074 13.9798C131.074 14.3202 131.006 14.7112 130.871 15.1536C130.735 15.5958 130.588 16.0608 130.43 16.5482C130.272 17.0358 130.125 17.5405 129.989 18.062C129.854 18.5836 129.786 19.0825 129.786 19.5588C129.786 19.7854 129.707 20.0009 129.549 20.2051C129.391 20.4092 129.312 20.6245 129.312 20.8513C129.312 21.078 129.346 21.2141 129.413 21.2594C129.481 21.3049 129.583 21.3276 129.718 21.3276C129.944 21.3276 130.136 21.2483 130.295 21.0895C130.66 20.7238 132.48 20.069 133.006 20.069C133.096 20.069 133.226 20.0917 133.396 20.137C133.565 20.1825 133.735 20.2504 133.904 20.3413C134.074 20.4319 134.221 20.5509 134.345 20.6983C134.469 20.8457 134.531 21.0101 134.531 21.1915C134.531 21.3729 134.481 21.4976 134.379 21.5656C134.277 21.6337 134.159 21.679 134.023 21.7017C133.887 21.7245 133.758 21.7357 133.633 21.7357C133.509 21.7357 133.413 21.7698 133.345 21.8378C132.97 22.2141 130.332 23.7239 129.617 24.083C129.526 24.1283 129.397 24.2303 129.227 24.3892C129.057 24.548 128.803 24.8427 128.464 25.2736C128.413 25.3255 124.092 42.3268 124.092 43.6092L124.092 43.6095ZM125.516 30.9378C125.618 30.5947 125.646 30.2235 125.702 29.8494C125.759 29.4752 125.787 29.1406 125.787 28.8458C125.787 28.7778 125.73 28.7041 125.617 28.6248C125.504 28.5454 125.425 28.5056 125.38 28.5056C125.335 28.5056 125.267 28.5398 125.177 28.6077C125.087 28.6759 124.99 28.7608 124.889 28.8629C122.418 31.3422 119.042 38.3641 119.042 42.2488C119.042 42.7477 119.121 43.2751 119.279 43.8306C119.437 44.3862 119.765 44.766 120.262 44.9702C124.271 44.0789 124.489 34.3831 125.516 30.938V30.9378ZM125.889 14.4222C125.798 14.3316 125.725 14.2408 125.668 14.1502C125.612 14.0594 125.504 14.0141 125.346 14.0141C125.233 14.0141 125.047 14.0877 124.787 14.2352C124.527 14.3826 124.228 14.564 123.889 14.7794C121.282 16.4367 120.282 17.6752 118.618 20.4604C118.517 20.6304 118.466 20.7495 118.466 20.8174C118.511 20.9308 118.528 21.0103 118.517 21.0556C118.505 21.101 118.556 21.1238 118.669 21.1238C118.692 21.1238 118.714 21.1123 118.737 21.0896C119.076 20.8855 119.398 20.6417 119.703 20.3582C120.542 19.5788 124.859 15.3236 125.431 15.0686C125.533 15.0232 125.629 14.9609 125.719 14.8814C125.81 14.8021 125.866 14.6489 125.889 14.4221L125.889 14.4222ZM133.176 20.6475C133.176 20.5114 133.204 20.211 133.261 19.746C133.495 17.8134 133.901 14.6729 134.684 12.9424C134.854 12.5683 135.029 12.3812 135.21 12.3812C135.458 12.3812 135.729 12.4265 136.023 12.5173C136.317 12.6079 136.588 12.6873 136.836 12.7553C137.062 12.8233 137.271 13.016 137.464 13.3337C137.656 13.651 137.819 14.014 137.955 14.4221C139.096 17.8573 137.198 21.6411 138.277 25.0867C138.401 25.4835 138.576 25.682 138.802 25.682C138.893 25.682 138.96 25.6592 139.006 25.6138C139.729 24.7521 140.378 23.9073 140.955 23.0795C141.531 22.2517 141.943 21.2823 142.192 20.1712C142.26 19.8308 142.401 19.5644 142.615 19.3717C142.83 19.1789 143.073 19.0825 143.344 19.0825C143.57 19.0825 143.762 19.1336 143.92 19.2356C144.079 19.3377 144.158 19.4907 144.158 19.6949C144.158 19.831 144.107 19.9783 144.005 20.1371C143.904 20.296 143.785 20.4661 143.649 20.6473C143.514 20.8289 143.384 21.0101 143.26 21.1917C143.135 21.3731 143.051 21.5543 143.005 21.7359C142.983 21.8041 142.943 21.906 142.887 22.0421C142.83 22.1782 142.768 22.3255 142.7 22.4844C142.632 22.6432 142.553 22.8018 142.463 22.9607C142.373 23.1193 142.282 23.2327 142.192 23.3009C142.034 23.4142 141.955 23.556 141.955 23.7261C141.955 25.1035 139.192 27.9216 138.243 28.1485C138.006 28.2052 137.786 28.2334 137.582 28.2334C137.311 28.2334 137.017 28.1598 136.701 28.0124C135.312 27.3651 133.312 24.5274 133.312 22.9268C133.312 22.5412 133.289 22.1612 133.244 21.7871C133.198 21.4129 133.176 21.033 133.176 20.6475H133.176ZM135.718 7.51668C135.718 7.33527 135.752 7.11985 135.82 6.87041C135.888 6.62096 136.068 6.49631 136.362 6.49631C136.565 6.54162 136.763 6.57564 136.955 6.59837C137.147 6.62096 137.328 6.66641 137.497 6.73432C137.667 6.80236 137.803 6.89299 137.904 7.00649C138.006 7.11985 138.057 7.27866 138.057 7.48279C138.057 7.86819 137.955 8.24821 137.752 8.62231C137.548 8.99655 137.221 9.18373 136.769 9.18373C136.565 9.18373 136.396 9.12698 136.26 9.01363C136.125 8.90013 136.017 8.75839 135.938 8.58829C135.859 8.41818 135.803 8.23678 135.769 8.04408C135.735 7.85125 135.718 7.67549 135.718 7.51682L135.718 7.51668ZM142.158 20.8176C142.248 20.7949 142.333 20.7157 142.412 20.5796C142.491 20.4435 142.565 20.2905 142.632 20.1203C142.7 19.9501 142.768 19.78 142.836 19.61C142.904 19.4401 142.971 19.3209 143.039 19.253C143.017 19.1395 143.005 18.9808 143.005 18.7766C143.005 18.4818 143.068 18.1869 143.192 17.8921C143.316 17.5974 143.378 17.3592 143.378 17.1777C143.459 16.0467 144.799 13.3897 145.48 12.1942C145.615 11.956 145.751 11.7462 145.886 11.5647C146.022 11.3833 146.124 11.2925 146.192 11.2925C146.237 11.2925 146.276 11.2983 146.31 11.3096C146.344 11.321 146.384 11.3267 146.429 11.3267C146.61 11.3267 146.79 11.3039 146.971 11.2585C147.152 11.2132 147.333 11.1905 147.513 11.1905C147.784 11.1905 147.994 11.2585 148.141 11.3946C148.287 11.5307 148.406 11.7009 148.496 11.9048C148.587 12.109 148.66 12.3243 148.717 12.5512C148.773 12.7778 148.824 12.982 148.869 13.1634C148.869 13.2769 148.858 13.3788 148.835 13.4698C148.813 13.5604 148.79 13.685 148.767 13.8437C149.061 13.4583 149.394 13.0727 149.767 12.6871C150.14 12.3017 150.349 11.9954 150.394 11.7688C150.417 11.6327 150.524 11.457 150.716 11.2416C150.908 11.0261 151.14 10.8107 151.411 10.5953C151.682 10.3799 151.97 10.1983 152.276 10.0511C152.581 9.90356 152.88 9.83 153.174 9.83C153.626 9.83 154.004 9.93193 154.309 10.1361C154.614 10.3402 154.857 10.5954 155.038 10.9016C155.219 11.2077 155.343 11.5422 155.411 11.905C155.479 12.2678 155.512 12.5969 155.512 12.8915C155.512 13.5492 155.428 14.0426 155.258 14.3714C155.089 14.7002 154.756 15.046 154.258 15.4088C154.1 15.5222 153.987 15.6639 153.919 15.8342C153.852 16.0043 153.795 16.163 153.75 16.3103C153.705 16.4579 153.654 16.5883 153.597 16.7017C153.541 16.815 153.445 16.8718 153.309 16.8718C152.948 16.8718 152.688 16.6563 152.53 16.2254C152.372 15.7945 152.259 15.3239 152.191 14.8137C152.123 14.3035 152.072 13.8328 152.038 13.402C152.004 12.971 151.92 12.7557 151.784 12.7557C151.761 12.7557 151.75 12.7614 151.75 12.7727C151.75 12.7841 151.739 12.7897 151.716 12.7897C151.377 12.9939 151.022 13.3009 150.649 13.708C146.002 18.7686 145.589 24.6587 144.429 28.3697C144.311 28.7476 144.073 29.0672 143.836 29.3732C143.599 29.6796 143.322 29.8326 143.005 29.8326C142.576 29.8326 142.276 29.5946 142.107 29.1181C141.786 28.2164 141.79 24.5956 141.904 23.8965C141.983 23.4089 142.135 23.029 142.361 22.7569C142.361 22.7342 142.367 22.7171 142.378 22.7058C142.389 22.6944 142.395 22.666 142.395 22.6209C142.395 22.5075 142.367 22.4054 142.31 22.3145C142.254 22.2239 142.226 22.1331 142.226 22.0425C142.226 21.8838 142.248 21.7079 142.294 21.5152C142.339 21.3224 142.384 21.1582 142.429 21.0221L142.158 20.8179V20.8176Z" fill="black"/>
<path d="M34.5513 22.5998C32.5576 27.8611 26.1278 30.5997 22.1991 31.1835C13.8335 32.4266 10.8493 30.3714 3.15192 29.4515C2.19261 29.3372 2.0459 30.2831 1.90166 32.3049C1.86776 32.7821 0.55396 30.1212 0.325592 30.0147C1.11761 27.6734 1.24744 22.5878 1.93117 21.8165C2.13538 21.5859 1.89741 26.8842 4.31929 27.3339C11.6214 28.6892 27.7339 32.7731 33.5345 24.0626C33.7236 23.7787 33.6079 23.3202 33.6193 22.8552C33.7561 17.2632 34.7805 21.9948 34.5513 22.5998Z" fill="black"/>
<path d="M37.3642 50.8262H36.9459V55.9631H41.4184V55.6551H37.3642V50.8262ZM54.9926 50.8262H54.5827V55.9631H54.9926V50.8262ZM69.19 55.9631V51.3401L73.7221 55.9631H74.1488V50.8262H73.7393V55.4493L69.2069 50.8262H68.7801V55.9631H69.19ZM93.2966 52.0594C92.8186 51.164 91.7773 50.7382 90.6592 50.7382C88.8925 50.7382 87.5609 51.8907 87.5609 53.3947C87.5609 54.9139 88.9008 56.0365 90.6592 56.0365C91.786 56.0365 92.9041 55.5963 93.399 54.6643V53.2847H90.531V53.5856H93.0235V54.6131C92.5795 55.3763 91.6065 55.7136 90.6591 55.7136C89.1398 55.7136 87.979 54.723 87.979 53.3947C87.979 52.0739 89.1312 51.0688 90.6591 51.0688C91.632 51.0688 92.5197 51.4355 92.9806 52.1841L93.2964 52.0594H93.2966ZM111.531 51.1348V50.8264H107.05V55.9632H111.531V55.6552H107.468V53.5489H111.377V53.2408H107.468V51.1348H111.531ZM127.999 50.8264H125.028V55.9632H125.447V53.7911H127.06L129.689 55.9632H130.218V55.9413L127.615 53.7838H128.076C129.339 53.7838 130.201 53.1967 130.201 52.2941C130.201 51.8834 130.013 51.4797 129.638 51.2228C129.177 50.9072 128.537 50.8265 127.999 50.8265L127.999 50.8264ZM128.076 53.4827H125.447V51.1348H127.999C128.767 51.1348 129.783 51.3547 129.783 52.2941C129.783 52.9766 129.253 53.4537 128.076 53.4828V53.4827ZM143.963 50.8264H143.553V55.9632H143.963V50.8264ZM162.231 51.1348V50.8264H157.75V55.9632H162.231V55.6552H158.169V53.5489H162.078V53.2408H158.169V51.1348H162.231Z" fill="black"/>
</svg>
