<svg width="25" height="25" viewBox="0 0 25 25" fill="none" xmlns="http://www.w3.org/2000/svg">
<path d="M18.4073 0H6.59032C2.89516 0 0 2.89597 0 6.59194V18.4089C0 22.1048 2.89516 25 6.59032 25H18.4073C22.104 25 25 22.1048 25 18.4081V6.59194C25 2.89597 22.104 0 18.4073 0ZM23.3871 18.4081C23.3871 21.246 21.2468 23.3863 18.4073 23.3863H6.59032C3.75242 23.3863 1.6129 21.2468 1.6129 18.4081V6.59194C1.6129 3.75323 3.75242 1.6129 6.59032 1.6129H18.4073C21.2468 1.6129 23.3871 3.75323 23.3871 6.59194V18.4081Z" fill="black"/>
<path d="M12.8564 5.1145C8.69113 5.1145 6.59113 8.00482 6.59113 10.4145C6.59113 11.8742 7.16209 13.1718 8.38548 13.6564C8.43709 13.6766 8.4879 13.6871 8.53548 13.6871C8.67258 13.6871 8.78306 13.6032 8.825 13.4435C8.86613 13.2951 8.96129 12.9201 9.00484 12.7621C9.0629 12.5492 9.04113 12.4758 8.87903 12.2903C8.5258 11.8871 8.29919 11.3653 8.29919 10.6274C8.29919 8.48224 9.95887 6.5637 12.6169 6.5637C14.971 6.5637 16.2645 7.95563 16.2645 9.8145C16.2645 12.2605 15.146 14.3258 13.4855 14.3258C12.5669 14.3258 11.8814 13.5911 12.1016 12.6911C12.3653 11.6161 12.8766 10.4564 12.8766 9.68144C12.8766 8.98628 12.4903 8.40805 11.6935 8.40805C10.7548 8.40805 10.0016 9.34595 10.0016 10.604C10.0016 11.404 10.2814 11.9468 10.2814 11.9468C10.2814 11.9468 9.32338 15.8806 9.15483 16.5701C8.81935 17.9419 9.10403 19.6242 9.12822 19.7935C9.13629 19.854 9.1879 19.8871 9.24112 19.8871C9.27661 19.8871 9.3129 19.8726 9.33629 19.8419C9.42338 19.7339 10.5395 18.3992 10.9194 17.0653C11.0282 16.6879 11.5363 14.7339 11.5363 14.7339C11.8411 15.296 12.7314 15.7903 13.679 15.7903C16.4968 15.7903 18.4089 13.3056 18.4089 9.97741C18.4081 7.45886 16.2056 5.1145 12.8564 5.1145Z" fill="black"/>
</svg>
